# xmcd
#
# Track frame offsets:
#	150
#	25121
#	51768
#	88443
#	116853
#	145928
#	165800
#	197514
#	229735
#	255983
#
# Disc length: 4283 seconds
#
# Revision: 1
# Processed by: cddbd v1.5.2PL0 Copyright (c) Steve Scherf et al.
# Submitted via: audiograbber 1.83.01
#
DISCID=7d10b90a
DTITLE=The Todd Wolfe Band - The Todd Wolfe Band Live
DYEAR=2011
DGENRE=Blues-Rock
TTITLE0=Ready For Love
TTITLE1=Crowded In My Soul
TTITLE2=Cold Black Night
TTITLE3=Beg Forgiveness
TTITLE4=Gates Of Heaven
TTITLE5=Roll Over
TTITLE6=Black Hearted Woman
TTITLE7=Silver Blue
TTITLE8=Change Will Come
TTITLE9=Shame
EXTD=
EXTT0=
EXTT1=
EXTT2=
EXTT3=
EXTT4=
EXTT5=
EXTT6=
EXTT7=
EXTT8=
EXTT9=
PLAYORDER=
